<svg xmlns="http://www.w3.org/2000/svg" width="108.523" height="24.312" viewBox="0 0 108.523 24.312">
  <g id="logo" transform="translate(-2321.747 -1669.998)">
    <g id="Group_29" data-name="Group 29" transform="translate(2321.747 1669.998)">
      <g id="Group_27" data-name="Group 27" transform="translate(0.409 0.409)">
        <path id="Path_78" data-name="Path 78" d="M2324.529,1694.6a1.533,1.533,0,0,1-1.556-1.556V1672.78a1.49,1.49,0,0,1,.449-1.122,1.531,1.531,0,0,1,1.107-.434h5.388a8.213,8.213,0,0,1,3.98.943,6.913,6.913,0,0,1,2.708,2.589,7.4,7.4,0,0,1,.973,3.831,6.646,6.646,0,0,1-3.681,6.106,8.547,8.547,0,0,1-3.98.9h-3.831v7.452a1.533,1.533,0,0,1-.434,1.107A1.493,1.493,0,0,1,2324.529,1694.6Zm1.556-11.882h3.831a5.35,5.35,0,0,0,2.424-.524,4.048,4.048,0,0,0,1.646-1.466,3.91,3.91,0,0,0,.6-2.14,4.519,4.519,0,0,0-.6-2.334,4.2,4.2,0,0,0-1.646-1.586,5.007,5.007,0,0,0-2.424-.569h-3.831Zm10.865,11.882a1.624,1.624,0,0,1-.763-.18,1.506,1.506,0,0,1-.584-.568l-5.387-8.679,3.023-.868,4.908,7.9a1.578,1.578,0,0,1,.15,1.631A1.385,1.385,0,0,1,2336.95,1694.6Z" transform="translate(-2322.973 -1671.223)" fill="#fff"/>
      </g>
      <g id="Group_28" data-name="Group 28">
        <path id="Path_79" data-name="Path 79" d="M2336.133,1694.191a2.029,2.029,0,0,1-.953-.227,1.91,1.91,0,0,1-.742-.717l-5.009-8.071c-.109,0-.219.005-.33.005h-3.421v7.043a1.936,1.936,0,0,1-.549,1.392,1.973,1.973,0,0,1-3.382-1.392v-20.262a1.894,1.894,0,0,1,.574-1.416,1.935,1.935,0,0,1,1.391-.549h5.387a8.654,8.654,0,0,1,4.176.992,7.346,7.346,0,0,1,2.865,2.74,7.83,7.83,0,0,1,1.03,4.04,7.225,7.225,0,0,1-1.033,3.835,7.151,7.151,0,0,1-2.792,2.593l4.332,6.974a1.975,1.975,0,0,1,.166,2.032A1.793,1.793,0,0,1,2336.133,1694.191Zm-5.784-9.081,4.784,7.708a1.106,1.106,0,0,0,.426.421,1.2,1.2,0,0,0,.574.134.985.985,0,0,0,.982-.54,1.173,1.173,0,0,0-.132-1.229l-4.384-7.058A8.77,8.77,0,0,1,2330.349,1685.11Zm-6.637-14.294a1.127,1.127,0,0,0-.823.319,1.089,1.089,0,0,0-.324.828v20.262a1.169,1.169,0,0,0,1.977.823,1.131,1.131,0,0,0,.318-.823v-7.862h4.064l-.157-.253,3.84-1.1.307.493a6.345,6.345,0,0,0,2.527-2.324,6.412,6.412,0,0,0,.913-3.407,7.031,7.031,0,0,0-.916-3.624,6.536,6.536,0,0,0-2.552-2.437,7.84,7.84,0,0,0-3.786-.893Zm5.387,11.493h-4.24v-9.438h4.24a5.43,5.43,0,0,1,2.62.619,4.619,4.619,0,0,1,1.8,1.738,4.937,4.937,0,0,1,.655,2.542,4.334,4.334,0,0,1-.661,2.359,4.486,4.486,0,0,1-1.809,1.613A5.783,5.783,0,0,1,2329.1,1682.309Zm-3.421-.818h3.421a4.976,4.976,0,0,0,2.242-.481,3.671,3.671,0,0,0,1.484-1.32,3.474,3.474,0,0,0,.534-1.92,4.14,4.14,0,0,0-.542-2.127,3.816,3.816,0,0,0-1.489-1.434,4.627,4.627,0,0,0-2.23-.52h-3.421Z" transform="translate(-2321.747 -1669.998)" fill="#fff"/>
      </g>
    </g>
    <g id="Group_32" data-name="Group 32" transform="translate(2378.612 1669.998)">
      <g id="Group_30" data-name="Group 30" transform="translate(0.409 0.409)">
        <path id="Path_80" data-name="Path 80" d="M2501.654,1694.718a8.179,8.179,0,0,1-4.206-1.093,8.078,8.078,0,0,1-2.963-2.978,8.319,8.319,0,0,1-1.092-4.25,8.817,8.817,0,0,1,1-4.235,7.763,7.763,0,0,1,2.739-2.964,7.21,7.21,0,0,1,3.92-1.092,7.361,7.361,0,0,1,5.776,2.724v-8.081a1.47,1.47,0,0,1,.434-1.108,1.52,1.52,0,0,1,2.619,1.108V1686.4a8.324,8.324,0,0,1-1.092,4.25,8.052,8.052,0,0,1-7.138,4.071Zm0-2.694a5.1,5.1,0,0,0,2.723-.733,5.188,5.188,0,0,0,1.886-2.02,6,6,0,0,0,.688-2.874,5.888,5.888,0,0,0-.688-2.873,5.255,5.255,0,0,0-1.886-1.99,5.4,5.4,0,0,0-5.432,0,5.32,5.32,0,0,0-1.916,1.99,5.785,5.785,0,0,0-.7,2.873,5.894,5.894,0,0,0,.7,2.874,5.25,5.25,0,0,0,1.916,2.02A5.126,5.126,0,0,0,2501.654,1692.024Z" transform="translate(-2493.393 -1671.223)" fill="#fff"/>
      </g>
      <g id="Group_31" data-name="Group 31">
        <path id="Path_81" data-name="Path 81" d="M2500.836,1694.31a8.616,8.616,0,0,1-4.411-1.148,8.523,8.523,0,0,1-3.111-3.126,8.764,8.764,0,0,1-1.147-4.455,9.261,9.261,0,0,1,1.052-4.428,8.208,8.208,0,0,1,2.88-3.116,7.646,7.646,0,0,1,4.139-1.155,7.762,7.762,0,0,1,3.443.775,7.917,7.917,0,0,1,1.925,1.32v-7.043a1.872,1.872,0,0,1,.558-1.4,1.928,1.928,0,0,1,3.312,1.4v13.647a8.763,8.763,0,0,1-1.147,4.455,8.459,8.459,0,0,1-7.492,4.274Zm-.6-16.611a6.841,6.841,0,0,0-3.7,1.029,7.4,7.4,0,0,0-2.6,2.811,8.45,8.45,0,0,0-.954,4.041,7.954,7.954,0,0,0,1.038,4.045,7.712,7.712,0,0,0,2.815,2.83,7.812,7.812,0,0,0,4,1.036,7.645,7.645,0,0,0,6.785-3.866,7.966,7.966,0,0,0,1.037-4.045v-13.647a1.148,1.148,0,0,0-1.926-.813,1.071,1.071,0,0,0-.309.813v9.236l-.727-.9a6.959,6.959,0,0,0-5.459-2.572Zm.6,13.917a5.552,5.552,0,0,1-2.92-.793,5.673,5.673,0,0,1-2.062-2.174,6.317,6.317,0,0,1-.754-3.069,6.208,6.208,0,0,1,.756-3.072,5.733,5.733,0,0,1,2.06-2.14,5.8,5.8,0,0,1,5.857,0,5.668,5.668,0,0,1,2.031,2.142,6.311,6.311,0,0,1,.739,3.069,6.427,6.427,0,0,1-.737,3.066,5.613,5.613,0,0,1-2.032,2.176A5.532,5.532,0,0,1,2500.836,1691.617Zm0-11.224a4.752,4.752,0,0,0-2.5.675,4.93,4.93,0,0,0-1.769,1.839,5.4,5.4,0,0,0-.652,2.674,5.517,5.517,0,0,0,.653,2.677,4.874,4.874,0,0,0,1.768,1.866,4.989,4.989,0,0,0,5.008,0,4.816,4.816,0,0,0,1.739-1.865,5.624,5.624,0,0,0,.64-2.68,5.511,5.511,0,0,0-.638-2.677,4.868,4.868,0,0,0-1.741-1.838A4.729,4.729,0,0,0,2500.836,1680.393Z" transform="translate(-2492.167 -1669.998)" fill="#fff"/>
      </g>
    </g>
    <g id="Group_35" data-name="Group 35" transform="translate(2398.316 1676.881)">
      <g id="Group_33" data-name="Group 33" transform="translate(0.409 0.409)">
        <path id="Path_82" data-name="Path 82" d="M2560.972,1708.463a9,9,0,0,1-4.415-1.062,7.772,7.772,0,0,1-3.022-2.933,8.353,8.353,0,0,1-1.093-4.294,8.809,8.809,0,0,1,1.033-4.325,7.545,7.545,0,0,1,2.858-2.933,8.18,8.18,0,0,1,4.19-1.063,7.5,7.5,0,0,1,4.011,1.033,6.737,6.737,0,0,1,2.559,2.843,9.425,9.425,0,0,1,.883,4.175,1.256,1.256,0,0,1-.39.943,1.37,1.37,0,0,1-.988.374h-12.062v-2.395h11.972l-1.227.838a6.417,6.417,0,0,0-.6-2.679,4.364,4.364,0,0,0-4.161-2.559,5.453,5.453,0,0,0-2.918.748,4.818,4.818,0,0,0-1.84,2.05,6.691,6.691,0,0,0-.629,2.948,5.73,5.73,0,0,0,.749,2.933,5.463,5.463,0,0,0,2.065,2.035,6.012,6.012,0,0,0,3.023.748,5.675,5.675,0,0,0,1.9-.344,5.888,5.888,0,0,0,1.571-.793,1.7,1.7,0,0,1,.973-.344,1.311,1.311,0,0,1,.913.314,1.418,1.418,0,0,1,.538.988,1.062,1.062,0,0,1-.479.928,8.278,8.278,0,0,1-2.529,1.317A9.035,9.035,0,0,1,2560.972,1708.463Z" transform="translate(-2552.442 -1691.852)" fill="#fff"/>
      </g>
      <g id="Group_34" data-name="Group 34">
        <path id="Path_83" data-name="Path 83" d="M2560.156,1708.056a9.441,9.441,0,0,1-4.611-1.113,8.21,8.21,0,0,1-3.179-3.085,8.793,8.793,0,0,1-1.148-4.5,9.252,9.252,0,0,1,1.083-4.522,7.99,7.99,0,0,1,3.01-3.089,8.616,8.616,0,0,1,4.4-1.118,7.928,7.928,0,0,1,4.225,1.094,7.166,7.166,0,0,1,2.712,3.012,9.863,9.863,0,0,1,.925,4.354,1.654,1.654,0,0,1-.514,1.237,1.769,1.769,0,0,1-1.272.489H2554.9a4.952,4.952,0,0,0,.518,1.271,5.078,5.078,0,0,0,1.913,1.885,5.629,5.629,0,0,0,2.821.695,5.286,5.286,0,0,0,1.764-.321,5.53,5.53,0,0,0,1.463-.735,2.111,2.111,0,0,1,1.205-.426,1.691,1.691,0,0,1,1.19.41,1.828,1.828,0,0,1,.683,1.278,1.461,1.461,0,0,1-.639,1.275,8.7,8.7,0,0,1-2.647,1.38A9.468,9.468,0,0,1,2560.156,1708.056Zm-.449-16.611a7.808,7.808,0,0,0-3.984,1.007,7.172,7.172,0,0,0-2.706,2.778,8.44,8.44,0,0,0-.981,4.127,7.99,7.99,0,0,0,1.036,4.088,7.4,7.4,0,0,0,2.867,2.781,8.768,8.768,0,0,0,6.975.524,7.916,7.916,0,0,0,2.406-1.25.653.653,0,0,0,.324-.585,1.021,1.021,0,0,0-.4-.7.885.885,0,0,0-.631-.212,1.293,1.293,0,0,0-.742.266,6.318,6.318,0,0,1-1.677.849,6.109,6.109,0,0,1-2.037.367,6.434,6.434,0,0,1-3.225-.8,5.886,5.886,0,0,1-2.217-2.186,5.808,5.808,0,0,1-.65-1.682h-.751V1697.6h.79a6.506,6.506,0,0,1,.478-1.37,5.247,5.247,0,0,1,1.994-2.221,5.877,5.877,0,0,1,3.132-.809,4.771,4.771,0,0,1,4.529,2.791,6.363,6.363,0,0,1,.517,1.609h1.9a8.3,8.3,0,0,0-.743-2.51,6.358,6.358,0,0,0-2.406-2.674A7.124,7.124,0,0,0,2559.707,1691.445Zm-4.947,8.55h11.022a.968.968,0,0,0,.705-.26.843.843,0,0,0,.264-.648,10.98,10.98,0,0,0-.07-1.256l-2.608,1.781-.015-.755c0-.148-.01-.293-.022-.437h-9.249a7.412,7.412,0,0,0-.058.938Q2554.728,1699.683,2554.76,1700Zm.184-2.394h8.974a5.464,5.464,0,0,0-.42-1.255,3.955,3.955,0,0,0-3.792-2.327,5.075,5.075,0,0,0-2.7.687,4.439,4.439,0,0,0-1.687,1.88A5.61,5.61,0,0,0,2554.944,1697.6Z" transform="translate(-2551.217 -1690.627)" fill="#fff"/>
      </g>
    </g>
    <g id="Group_38" data-name="Group 38" transform="translate(2418.039 1676.821)">
      <g id="Group_36" data-name="Group 36" transform="translate(0.409 0.409)">
        <path id="Path_84" data-name="Path 84" d="M2613.047,1708.224a1.534,1.534,0,0,1-1.108-.374,1.49,1.49,0,0,1-.388-1.123v-13.378a1.356,1.356,0,0,1,1.5-1.5,1.323,1.323,0,0,1,1.5,1.5v13.378a1.532,1.532,0,0,1-.374,1.107A1.487,1.487,0,0,1,2613.047,1708.224Zm-.03-10.236a5.975,5.975,0,0,1,.883-3.218,6.479,6.479,0,0,1,2.38-2.26,6.632,6.632,0,0,1,3.292-.838,4.924,4.924,0,0,1,2.679.583,1.236,1.236,0,0,1,.673,1.392,1.148,1.148,0,0,1-.344.644,1.2,1.2,0,0,1-.584.284,1.762,1.762,0,0,1-.718-.03,8.4,8.4,0,0,0-3.442-.06,4.661,4.661,0,0,0-2.41,1.227,3.114,3.114,0,0,0-.883,2.275Z" transform="translate(-2611.551 -1691.673)" fill="#fff"/>
      </g>
      <g id="Group_37" data-name="Group 37">
        <path id="Path_85" data-name="Path 85" d="M2612.231,1707.816a1.93,1.93,0,0,1-1.391-.489,1.881,1.881,0,0,1-.514-1.417v-13.379a1.76,1.76,0,0,1,1.906-1.905,1.92,1.92,0,0,1,1.411.493,1.733,1.733,0,0,1,.468,1.018,7.181,7.181,0,0,1,1.153-.8,7.055,7.055,0,0,1,3.492-.89,5.252,5.252,0,0,1,2.9.651,1.613,1.613,0,0,1,.844,1.835,1.533,1.533,0,0,1-.469.848,1.6,1.6,0,0,1-.781.38,2.162,2.162,0,0,1-.883-.034,8.04,8.04,0,0,0-3.264-.058,4.287,4.287,0,0,0-2.2,1.114,2.7,2.7,0,0,0-.765,1.988v8.74a1.931,1.931,0,0,1-.489,1.391A1.884,1.884,0,0,1,2612.231,1707.816Zm0-16.372a.955.955,0,0,0-1.087,1.087v13.379a1.113,1.113,0,0,0,.263.827,1.136,1.136,0,0,0,.824.26,1.113,1.113,0,0,0,.827-.263,1.153,1.153,0,0,0,.26-.824v-8.331h-1.526v-.409a6.4,6.4,0,0,1,.945-3.433,6.942,6.942,0,0,1,.582-.8v-.4a.927.927,0,0,0-1.087-1.087Zm.392,5.318h.7v-2.4A5.536,5.536,0,0,0,2612.622,1696.763Zm1.514-3.518v1.565q.087-.1.182-.2a5.084,5.084,0,0,1,2.615-1.34,8.824,8.824,0,0,1,3.609.058,1.392,1.392,0,0,0,.563.029.784.784,0,0,0,.388-.189.759.759,0,0,0,.214-.422c.067-.261.067-.59-.5-.965a4.573,4.573,0,0,0-2.453-.516,6.237,6.237,0,0,0-4.619,1.98Z" transform="translate(-2610.325 -1690.447)" fill="#fff"/>
      </g>
    </g>
    <g id="Group_45" data-name="Group 45" transform="translate(2373.51 1682.113)">
      <path id="Path_90" data-name="Path 90" d="M2478.547,1718.208a1.668,1.668,0,0,1-1.668-1.668v-8.565a1.668,1.668,0,1,1,3.337,0v8.565A1.668,1.668,0,0,1,2478.547,1718.208Z" transform="translate(-2476.878 -1706.306)" fill="#fff"/>
    </g>
    <g id="Group_46" data-name="Group 46" transform="translate(2341.303 1684.059)">
      <path id="Path_91" data-name="Path 91" d="M2400.031,1715.808h-17.842a1.835,1.835,0,0,1,0-3.67h17.842a1.835,1.835,0,0,1,0,3.67Z" transform="translate(-2380.353 -1712.138)" fill="#fff"/>
    </g>
    <g id="Group_47" data-name="Group 47" transform="translate(2339.025 1676.882)">
      <path id="Path_92" data-name="Path 92" d="M2382.1,1707.763a8.567,8.567,0,1,1,8.567-8.567,1.668,1.668,0,0,1-3.337,0,5.228,5.228,0,1,0-2.352,4.367,1.668,1.668,0,0,1,1.841,2.783A8.532,8.532,0,0,1,2382.1,1707.763Z" transform="translate(-2373.529 -1690.629)" fill="#fff"/>
    </g>
    <g id="Group_48" data-name="Group 48" transform="translate(2359.713 1676.882)">
      <path id="Path_93" data-name="Path 93" d="M2444.1,1707.763a8.567,8.567,0,1,1,8.567-8.567A8.577,8.577,0,0,1,2444.1,1707.763Zm0-13.8a5.23,5.23,0,1,0,5.23,5.23A5.236,5.236,0,0,0,2444.1,1693.966Z" transform="translate(-2435.529 -1690.629)" fill="#fff"/>
    </g>
  </g>
</svg>
