<svg id="men" xmlns="http://www.w3.org/2000/svg" width="14.393" height="12.209" viewBox="0 0 14.393 12.209">
  <g id="Group_6196" data-name="Group 6196" transform="translate(11.202 6.592)">
    <g id="Group_6195" data-name="Group 6195" transform="translate(0 0)">
      <path id="Path_7152" data-name="Path 7152" d="M399.607,273.32h-1.113a2.9,2.9,0,0,1,.175,1v4.207a1.24,1.24,0,0,1-.071.416h1.84a1.248,1.248,0,0,0,1.247-1.247V275.4A2.08,2.08,0,0,0,399.607,273.32Z" transform="translate(-398.494 -273.32)" fill="#fff"/>
    </g>
  </g>
  <g id="Group_6198" data-name="Group 6198" transform="translate(0 6.592)">
    <g id="Group_6197" data-name="Group 6197">
      <path id="Path_7153" data-name="Path 7153" d="M3.015,274.316a2.9,2.9,0,0,1,.175-1H2.078A2.08,2.08,0,0,0,0,275.4v2.293a1.248,1.248,0,0,0,1.247,1.247h1.84a1.241,1.241,0,0,1-.071-.416Z" transform="translate(0 -273.321)" fill="#fff"/>
    </g>
  </g>
  <g id="Group_6200" data-name="Group 6200" transform="translate(3.847 5.509)">
    <g id="Group_6199" data-name="Group 6199" transform="translate(0 0)">
      <path id="Path_7154" data-name="Path 7154" d="M141.451,234.815h-2.545a2.08,2.08,0,0,0-2.078,2.078V241.1a.416.416,0,0,0,.416.416h5.869a.416.416,0,0,0,.416-.416v-4.207A2.08,2.08,0,0,0,141.451,234.815Z" transform="translate(-136.829 -234.815)" fill="#fff"/>
    </g>
  </g>
  <g id="Group_6202" data-name="Group 6202" transform="translate(4.698 0)">
    <g id="Group_6201" data-name="Group 6201" transform="translate(0 0)">
      <path id="Path_7155" data-name="Path 7155" d="M169.613,38.84a2.5,2.5,0,1,0,2.5,2.5A2.5,2.5,0,0,0,169.613,38.84Z" transform="translate(-167.114 -38.84)" fill="#fff"/>
    </g>
  </g>
  <g id="Group_6204" data-name="Group 6204" transform="translate(0.94 2.329)">
    <g id="Group_6203" data-name="Group 6203">
      <path id="Path_7156" data-name="Path 7156" d="M35.312,121.689a1.868,1.868,0,1,0,1.869,1.869A1.871,1.871,0,0,0,35.312,121.689Z" transform="translate(-33.443 -121.689)" fill="#fff"/>
    </g>
  </g>
  <g id="Group_6206" data-name="Group 6206" transform="translate(9.716 2.329)">
    <g id="Group_6205" data-name="Group 6205">
      <path id="Path_7157" data-name="Path 7157" d="M347.476,121.689a1.869,1.869,0,1,0,1.869,1.869A1.871,1.871,0,0,0,347.476,121.689Z" transform="translate(-345.607 -121.689)" fill="#fff"/>
    </g>
  </g>
</svg>
